<?xml version="1.0" encoding="UTF-8" standalone="no"?>
<svg
   width="1200"
   height="800"
   viewBox="0 0 1200 800"
   preserveAspectRatio="xMidYMid"
   role="img"
   aria-label="Illustrazione stilizzata di Roma e la fisica con forme morbide"
   version="1.1"
   id="svg24"
   xml:space="preserve"
   xmlns="http://www.w3.org/2000/svg"
   xmlns:svg="http://www.w3.org/2000/svg"><defs
     id="defs3"><!-- Gradients --><linearGradient
       id="grad-accent"
       x1="-100.47865"
       y1="-100.47865"
       x2="100.47865"
       y2="100.47865"
       gradientTransform="scale(1.4072641,0.71059869)"
       gradientUnits="userSpaceOnUse"><stop
         offset="0"
         stop-color="#800020"
         stop-opacity="0.95"
         id="stop1" /><stop
         offset="1"
         stop-color="#295763"
         stop-opacity="0.9"
         id="stop2" /></linearGradient><!-- Soft drop shadow filter --><!-- subtle texture for blobs --><filter
       id="grain"
       x="0"
       y="0"
       width="1"
       height="1"><feTurbulence
         baseFrequency="0.8"
         numOctaves="1"
         stitchTiles="stitch"
         result="t"
         id="feTurbulence3" /><feColorMatrix
         in="t"
         type="saturate"
         values="0"
         id="feColorMatrix3" /><feBlend
         in="SourceGraphic"
         in2="t"
         mode="overlay"
         id="feBlend3" /></filter><!-- small circle symbol (particle) --><symbol
       id="particle"
       viewBox="0 0 10 10"><circle
         cx="5"
         cy="5"
         r="2"
         id="circle3" /></symbol><style
       id="style1">.cls-1{fill:url(#linear-gradient);}.cls-2,.cls-3,.cls-5{fill:none;stroke:#333;stroke-linecap:round;stroke-linejoin:round;}.cls-2{stroke-width:14.36px;}.cls-3{stroke-width:11.47px;}.cls-4,.cls-6{fill:#333;}.cls-5{stroke-width:10.99px;}.cls-6{font-size:55.06px;font-family:Lato-ExtraBold, Lato;font-weight:700;}.cls-7{letter-spacing:-0.05em;}.cls-8{letter-spacing:-0.03em;}.cls-9{letter-spacing:0em;}</style></defs><!-- Background (dominant white) --><path
     d="M 0,0 V 800 H 1200 V 0 Z"
     style="display:inline;fill:#ffffff"
     id="path28" /><!-- Soft large white blob (foreground, left) --><!-- Soft large white blob (right bottom) --><!-- Tiber curve (stylized river) --><path
     d="m 80,420 c 140,-60 280,-40 440,-80 160,-40 240,-60 460,20"
     fill="none"
     stroke="#295763"
     stroke-opacity="0.85"
     stroke-width="8"
     stroke-linecap="round"
     id="path5" /><!-- Colosseo abstract (arches curved lines) --><!-- Dome (S. Pietro suggestion) --><g
     transform="matrix(0.9,0,0,0.9,700,110)"
     id="g14"><path
       d="M 0,160 C 40,40 140,20 200,160 Z"
       fill="#ffffff"
       stroke="#295763"
       stroke-width="6"
       id="path13" /><rect
       x="88"
       y="160"
       width="24"
       height="48"
       rx="6"
       fill="#295763"
       id="rect13" /><circle
       cx="100"
       cy="40"
       r="6"
       fill="#800020"
       id="circle13" /></g><!-- Physics elements: orbit + electron dots --><g
     transform="translate(540,180)"
     id="g18"><!-- orbit paths --><ellipse
       cx="0"
       cy="0"
       rx="140"
       ry="70"
       fill="none"
       stroke="url(#grad-accent)"
       stroke-width="2.8"
       opacity="0.95"
       transform="rotate(-18)"
       id="ellipse14"
       style="stroke:url(#grad-accent)" /><ellipse
       cx="40"
       cy="-10"
       rx="110"
       ry="58"
       fill="none"
       stroke="#dd9426"
       stroke-width="2"
       stroke-dasharray="6, 6"
       opacity="0.6"
       transform="rotate(20)"
       id="ellipse15" /><!-- electrons (particles) --><g
       transform="translate(-337.90257,-23.504736)"
       id="g17"><use
         href="#particle"
         x="120"
         y="30"
         fill="#295763"
         opacity="0.95"
         id="use16"
         style="opacity:0.663"
         transform="matrix(0.06630582,0,0,0.06630582,-68.200273,88.633293)" /><use
         href="#particle"
         x="-20"
         y="40"
         fill="#dd9426"
         opacity="0.75"
         id="use17"
         style="opacity:0.597"
         transform="translate(307.44249,92.016242)" /><use
         href="#particle"
         x="-20"
         y="40"
         fill="#dd9426"
         opacity="0.75"
         id="use17-6"
         style="opacity:0.597"
         transform="matrix(-0.60086036,0.27169509,-0.17396549,0.49575969,654.05045,-116.3045)" /></g></g><g
     transform="matrix(0.9,0,0,0.9,200,300)"
     id="g13"><rect
       x="0"
       y="0"
       width="260"
       height="120"
       rx="28"
       ry="28"
       fill="none"
       stroke="#800020"
       stroke-width="6"
       stroke-opacity="0.9"
       id="rect5" /><!-- three arches --><path
       d="M 18,100 V 50 A 38,38 0 0 1 56,12 h 18 a 38,38 0 0 1 38,38 v 50"
       fill="none"
       stroke="#800020"
       stroke-width="5"
       stroke-linecap="round"
       id="path6" /><path
       d="M 110,100 V 50 a 38,38 0 0 1 38,-38 h 18 a 38,38 0 0 1 38,38 v 50"
       fill="none"
       stroke="#800020"
       stroke-width="5"
       stroke-linecap="round"
       id="path7" /><path
       d="M 202,100 V 50 a 38,38 0 0 1 38,-38 h 18 a 38,38 0 0 1 38,38 v 50"
       fill="none"
       stroke="#800020"
       stroke-width="5"
       stroke-linecap="round"
       id="path8" /><!-- dotted rhythm hint (physics discrete states) --><g
       transform="translate(12,10)"
       opacity="0.12"
       id="g12"><circle
         cx="16"
         cy="16"
         r="2.2"
         fill="#800020"
         id="circle8" /><circle
         cx="56"
         cy="16"
         r="2.2"
         fill="#800020"
         id="circle9" /><circle
         cx="96"
         cy="16"
         r="2.2"
         fill="#800020"
         id="circle10" /><circle
         cx="136"
         cy="16"
         r="2.2"
         fill="#800020"
         id="circle11" /><circle
         cx="176"
         cy="16"
         r="2.2"
         fill="#800020"
         id="circle12" /></g></g><!-- Wave (sine) representing physics waves --><path
     d="m 120.02019,637.11064 c 60,-40 120,40 180,0 60,-40 120,40 180,0 60,-40 120,40 180,0 60,-40 120,40 180,0"
     fill="none"
     stroke="#dd9426"
     stroke-width="3.5"
     stroke-linecap="round"
     stroke-opacity="0.95"
     id="path18" /><!-- A few soft translucent color accents to tie the palette (small blobs) --><g
     opacity="0.12"
     filter="url(#grain)"
     id="g20"
     style="display:inline"><ellipse
       cx="980"
       cy="160"
       rx="120"
       ry="70"
       fill="#800020"
       id="ellipse18" /><ellipse
       cx="100"
       cy="640"
       rx="180"
       ry="120"
       fill="#295763"
       id="ellipse19" /><ellipse
       cx="782.11096"
       cy="594.69556"
       rx="140"
       ry="90"
       fill="#dd9426"
       id="ellipse20" /></g><!-- Fine dotted grid hint (measurement / physics) --><!-- Accessibility: title + description --><title
     id="title24">Roma-Fisica — Illustrazione stilizzata</title><desc
     id="desc24">Forme morbide bianche con accenti in #800020 e #295763; elementi che richiamano Colosseo, Cupola, Tiber e simboli di fisica (orbite, onde).</desc><g
     id="g33"
     transform="translate(-25.254549,-89.542497)"><g
       id="background"
       style="display:inline" /><g
       id="logos"
       transform="matrix(0.39438685,0,0,0.39438685,234.7038,710.87868)"><path
         class="cls-3"
         d="m 1091.18,203.47 a 11.87,11.87 0 0 0 11.89,11.87 16.52,16.52 0 0 0 16.48,-16.52 22.37,22.37 0 0 0 -22.32,-22.36 29.67,29.67 0 0 0 -29.58,29.62 c 0,20.68 18,38.71 38.66,38.71 v 0 a 50.13,50.13 0 0 0 50.08,-50.07 64.44,64.44 0 0 0 -64.31,-64.26 H 839.29 a 64.42,64.42 0 0 0 -64.29,64.26 50.13,50.13 0 0 0 50.09,50.07 v 0 c 20.7,0 38.71,-18 38.71,-38.71 a 29.64,29.64 0 0 0 -29.62,-29.62 22.42,22.42 0 0 0 -22.33,22.36 16.54,16.54 0 0 0 16.52,16.52 11.85,11.85 0 0 0 11.88,-11.87"
         id="path26"
         style="stroke:#993701;stroke-opacity:1" /><line
         class="cls-3"
         x1="888.25"
         y1="202.71001"
         x2="1042.5"
         y2="202.71001"
         id="line26"
         style="stroke:#993701;stroke-opacity:1" /><line
         class="cls-3"
         x1="888.25"
         y1="227.03"
         x2="1042.5"
         y2="227.03"
         id="line27"
         style="stroke:#993701;stroke-opacity:1" /><line
         class="cls-3"
         x1="924.63843"
         y1="257.11853"
         x2="924.63843"
         y2="456.51724"
         id="line30"
         style="stroke:#993701;stroke-opacity:1" /><line
         class="cls-3"
         x1="887.55383"
         y1="256.61789"
         x2="887.55383"
         y2="456.0166"
         id="line30-4"
         style="fill:none;stroke:#993701;stroke-width:17.2256px;stroke-linecap:round;stroke-linejoin:round;stroke-opacity:1" /><line
         class="cls-3"
         x1="966.46906"
         y1="255.93172"
         x2="966.46906"
         y2="455.33044"
         id="line30-4-2"
         style="fill:none;stroke:#993701;stroke-width:17.2256px;stroke-linecap:round;stroke-linejoin:round;stroke-opacity:1" /><line
         class="cls-3"
         x1="1007.2133"
         y1="257.58554"
         x2="1007.2133"
         y2="456.98425"
         id="line30-4-2-4"
         style="fill:none;stroke:#993701;stroke-width:17.2256px;stroke-linecap:round;stroke-linejoin:round;stroke-opacity:1" /><line
         class="cls-3"
         x1="1045.6655"
         y1="255.52681"
         x2="1045.6655"
         y2="454.92551"
         id="line30-4-2-4-4"
         style="fill:#993701;fill-opacity:1;stroke:#993701;stroke-width:17.2256px;stroke-linecap:round;stroke-linejoin:round;stroke-opacity:1" /></g></g></svg>
